# xmcd CD database file
#
# Track frame offsets:
#	150
#	10495
#	32196
#	44980
#	57849
#	71614
#	83769
#	97589
#	112874
#	124007
#	137338
#	148495
#	160897
#	174863
#	186505
#	200932
#	216063
#	228412
#	243142
#	256022
#	268876
#	281959
#	298293
#	312388
#
# Disc length: 4366 seconds
#
# Revision: 3
# Processed by: cddbd v1.5.2PL0 Copyright (c) Steve Scherf et al.
# Submitted via: CDex 1.70beta2
#
DISCID=70110c18
DTITLE=MUDDY WATERS - The Father Of The Chicago Blues
DYEAR=1990
DGENRE=Blues
TTITLE0=Sugar Sweet
TTITLE1=Twenty Four Hours
TTITLE2=All Aboard
TTITLE3=Hoochie Coochie
TTITLE4=I'm Ready
TTITLE5=Long Distance Call
TTITLE6=I Want To Love Me
TTITLE7=Honry Bee
TTITLE8=Gone To Main Street
TTITLE9=She Moves Me
TTITLE10=I Can't Call Her Sugar
TTITLE11=I Can't Be Satisfied
TTITLE12=Rollin' Stone
TTITLE13=You Gonna Miss Me
TTITLE14=Baby, Please Don't Go
TTITLE15=Standing Around Crying
TTITLE16=Got My Mojo Working
TTITLE17=Still A Fool
TTITLE18=Louisanna Blues
TTITLE19=I Just Want To Make Love To You
TTITLE20=You Can't Lose What You Ain't Never Had
TTITLE21=Blow Wind Blow
TTITLE22=Forty Days And Forty Nights
TTITLE23=Walkin' Thru The Park
EXTD=YEAR: 1990
EXTT0=
EXTT1=
EXTT2=
EXTT3=
EXTT4=
EXTT5=
EXTT6=
EXTT7=
EXTT8=
EXTT9=
EXTT10=
EXTT11=
EXTT12=
EXTT13=
EXTT14=
EXTT15=
EXTT16=
EXTT17=
EXTT18=
EXTT19=
EXTT20=
EXTT21=
EXTT22=
EXTT23=
PLAYORDER=
